<svg width="61" height="74" viewBox="0 0 61 74" fill="none" xmlns="http://www.w3.org/2000/svg">
<path d="M50.1164 0C33.4109 8.25094 16.7055 16.5031 0 24.7553C0.0050592 26.2971 0.00885359 27.8401 0.0139128 29.3819C0.00885359 29.3844 0.0050592 29.3869 0 29.3895C0.0050592 31.104 0.0101184 32.8184 0.0164424 34.5329C0.0113832 34.5354 0.0050592 34.538 0 34.5405C0.0050592 36.0822 0.00885359 37.6253 0.0139128 39.1671C0.00885359 39.1696 0.0050592 39.1721 0 39.1746C0.0215016 46.3981 0.044268 53.6229 0.0670344 60.8464C3.56547 63.6866 7.0639 66.5256 10.5636 69.3659C11.817 68.699 13.0717 68.0321 14.3251 67.3652C17.3151 69.5764 20.3051 71.7888 23.2951 74C26.6885 68.8578 30.0807 63.7156 33.4742 58.5722C42.649 53.8271 51.8239 49.082 61 44.337V7.874C57.3726 5.24934 53.7438 2.62467 50.1164 0ZM15.1245 63.3223L14.1038 64.8389H13.9609C13.9254 64.2199 13.8888 63.6009 13.8533 62.9819C13.7572 61.3154 13.6611 59.65 13.565 57.9847C13.4878 56.6598 13.4119 55.3336 13.3348 54.0087C13.3183 54.0124 13.3019 54.0124 13.2867 54.02L7.34722 56.9712L3.41116 58.9264L1.78463 59.7345V26.0361L49.3335 2.41162V36.11L25.4516 47.9752C22.7803 51.945 20.1103 55.9135 17.4391 59.8833C16.6675 61.0292 15.896 62.1764 15.1245 63.3223Z" fill="#AE7AFF"/>
</svg>
